<?xml version="1.0" encoding="UTF-8" standalone="no"?>
<svg
   xmlns:dc="http://purl.org/dc/elements/1.1/"
   xmlns:cc="http://creativecommons.org/ns#"
   xmlns:rdf="http://www.w3.org/1999/02/22-rdf-syntax-ns#"
   xmlns:svg="http://www.w3.org/2000/svg"
   xmlns="http://www.w3.org/2000/svg"
   id="svg8"
   version="1.1"
   viewBox="0 0 67.733332 67.733335"
   height="256"
   width="256">
  <title
     id="title32">Add Button</title>
  <defs
     id="defs2" />
  <metadata
     id="metadata5">
    <rdf:RDF>
      <cc:Work
         rdf:about="">
        <dc:format>image/svg+xml</dc:format>
        <dc:type
           rdf:resource="http://purl.org/dc/dcmitype/StillImage" />
        <dc:title>Add Button</dc:title>
      </cc:Work>
    </rdf:RDF>
  </metadata>
  <g
     transform="translate(0,-229.26665)"
     id="layer1">
    <path
       id="path10"
       transform="matrix(0.26458333,0,0,0.26458333,0,229.26665)"
       d="M 128 0 A 127.99999 127.99999 0 0 0 0 128 A 127.99999 127.99999 0 0 0 128 256 A 127.99999 127.99999 0 0 0 256 128 A 127.99999 127.99999 0 0 0 128 0 z M 129.28516 32.857422 A 95.142856 95.142856 0 0 1 224.42773 128 A 95.142856 95.142856 0 0 1 129.28516 223.14258 A 95.142856 95.142856 0 0 1 34.142578 128 A 95.142856 95.142856 0 0 1 129.28516 32.857422 z "
       style="opacity:1;fill:#000000;fill-opacity:1;stroke-width:3.00471783" />
    <g
       transform="matrix(1.1179487,0,0,1.1179487,-4.54056,-30.301219)"
       id="g30">
      <rect
         style="opacity:1;fill:#000000;fill-opacity:1;stroke-width:0.26458332"
         id="rect24"
         width="5.4806542"
         height="36.85268"
         x="31.75"
         y="244.08333" />
      <rect
         y="-52.916668"
         x="259.76935"
         height="36.85268"
         width="5.4806542"
         id="rect26"
         style="opacity:1;fill:#000000;fill-opacity:1;stroke-width:0.26458332"
         transform="rotate(90)" />
    </g>
  </g>
</svg>
